<svg width="95" height="42" viewBox="0 0 95 42" fill="none" xmlns="http://www.w3.org/2000/svg">
<path d="M1.54587 19.847H6.59472V18.0269H1.54587V12.0228H6.93159V10.2026H0V28.3586H6.97705V26.5383H1.54587V19.847Z" fill="#EA4E56"/>
<path d="M19.3874 23.3937C19.3874 25.8053 18.5511 27.0111 16.8785 27.0111C15.2059 27.0111 14.3695 25.7615 14.3695 23.2625V10.2026H12.9043V23.9601C12.9043 25.5192 13.2432 26.7209 13.921 27.5651C14.5989 28.4092 15.5964 28.8313 16.9136 28.8313C18.1205 28.8313 19.0774 28.4252 19.7842 27.6129C20.491 26.8008 20.8478 25.6067 20.8547 24.031V10.2026H19.3874V23.3937Z" fill="#EA4E56"/>
<path d="M34.9287 26.632C34.7538 24.9229 34.6538 23.615 34.629 22.7084C34.5981 21.6901 34.41 20.9278 34.0649 20.4176C33.7197 19.9073 33.0791 19.5574 32.1264 19.3992C33.9471 19.0222 34.629 17.5728 34.629 15.0508C34.629 13.5305 34.5319 12.3434 33.883 11.4916C33.2341 10.6399 32.0395 10.2046 30.2808 10.2046H26.6146V28.3605H28.1604V20.4155H30.8078C31.1501 20.405 31.4898 20.4803 31.796 20.6348C32.1023 20.7893 32.3656 21.0181 32.5624 21.3006C32.995 21.8837 33.2106 22.8174 33.2093 24.1017C33.2093 24.7959 33.2396 25.4741 33.3002 26.1364C33.3735 26.883 33.4888 27.6249 33.6453 28.3584H35.4846V27.9419C35.2222 27.8857 35.0383 27.4526 34.9287 26.632ZM30.5888 18.5932H28.1604V12.0227H30.3346C32.2875 12.0227 33.0357 13.1015 33.0357 15.2611C33.0357 17.4833 32.3723 18.5932 30.5888 18.5932Z" fill="#EA4E56"/>
<path d="M44.3361 9.63611H44.27C43.169 9.6372 42.1133 10.0783 41.3346 10.8626C40.5559 11.6469 40.1176 12.7105 40.116 13.82V24.6119C40.1171 25.7217 40.5551 26.7858 41.3339 27.5706C42.1127 28.3554 43.1686 28.7968 44.27 28.7979H44.3361C45.4373 28.7968 46.4931 28.3553 47.2715 27.5705C48.05 26.7856 48.4875 25.7216 48.4881 24.6119V13.82C48.487 12.7107 48.0492 11.6471 47.2708 10.8627C46.4924 10.0784 45.437 9.6372 44.3361 9.63611ZM46.9112 24.6119C46.9096 25.2996 46.6377 25.9586 46.1552 26.4449C45.6726 26.9312 45.0186 27.2051 44.3361 27.2068H44.27C43.5876 27.2051 42.9335 26.9312 42.4509 26.4449C41.9684 25.9586 41.6965 25.2996 41.6949 24.6119V13.82C41.6971 13.1324 41.9691 12.4737 42.4515 11.9875C42.934 11.5014 43.5877 11.2273 44.27 11.2251H44.3361C45.0184 11.2273 45.6721 11.5014 46.1545 11.9875C46.637 12.4737 46.909 13.1324 46.9112 13.82V24.6119Z" fill="#EA4E56"/>
<path d="M79.6224 11.777C79.3512 11.7703 79.0814 11.8182 78.8288 11.9176C78.5761 12.0171 78.3456 12.1663 78.1508 12.3564C77.956 12.5466 77.8006 12.7739 77.6938 13.0252C77.587 13.2764 77.531 13.5466 77.5289 13.82V24.6139C77.5691 25.1368 77.8037 25.6251 78.1857 25.9813C78.5676 26.3375 79.0689 26.5353 79.5893 26.5353C80.1097 26.5353 80.611 26.3375 80.993 25.9813C81.375 25.6251 81.6095 25.1368 81.6498 24.6139V13.82C81.6493 13.2783 81.4355 12.759 81.0553 12.3759C80.6753 11.9929 80.1599 11.7775 79.6224 11.777Z" fill="#3E92C6"/>
<path d="M94.9899 20.3175C95.0462 13.4971 91.993 8.63423 85.9816 5.53122C81.2281 3.0821 76.1276 1.78258 70.9734 0.660074C68.1186 0.0301366 65.1843 -0.150412 62.2748 0.124848C57.4367 0.580936 53.7746 3.53819 52.4106 8.24686C51.0776 12.8578 51.5178 17.4748 52.3155 22.0981C53.0078 26.1071 54.7955 29.6287 57.2569 32.7817C58.7346 34.6727 60.7702 35.9785 62.8637 37.1198C69.0968 40.5206 75.8672 41.4432 82.807 41.1225C88.918 40.8413 92.3242 37.7528 93.9668 31.5801C94.7293 28.7103 94.8436 25.7718 95 22.6979C94.9899 22.0002 94.984 21.1589 94.9899 20.3175ZM70.2149 24.6138C70.2138 25.8515 69.7251 27.038 68.8563 27.9128C67.9875 28.7875 66.8096 29.2789 65.5814 29.2789H61.1815V9.70259H66.16C67.2348 9.70369 68.2652 10.1343 69.0253 10.8998C69.7855 11.6655 70.2133 12.7036 70.2149 13.7866V24.6138ZM84.3222 24.6138C84.3222 25.8787 83.8237 27.0918 82.9357 27.9861C82.0482 28.8805 80.8444 29.3829 79.5892 29.3829C78.3341 29.3829 77.1303 28.8805 76.2427 27.9861C75.3552 27.0918 74.8566 25.8787 74.8566 24.6138V13.8199C74.8577 12.5642 75.3532 11.3602 76.2343 10.4724C77.1154 9.58448 78.3101 9.08523 79.5562 9.08405H79.6223C80.8684 9.08523 82.0631 9.58448 82.9442 10.4724C83.8254 11.3602 84.3205 12.5642 84.3222 13.8199V24.6138Z" fill="#3E92C6"/>
<path d="M66.1602 12.3247H63.7834V26.6549H65.5815C66.1185 26.6544 66.6333 26.4392 67.013 26.0565C67.3927 25.6739 67.6062 25.1551 67.6068 24.614V13.7846C67.6071 13.593 67.5699 13.4032 67.4973 13.226C67.4247 13.049 67.3182 12.888 67.1838 12.7524C67.0495 12.6168 66.8899 12.5092 66.7142 12.4358C66.5386 12.3625 66.3503 12.3247 66.1602 12.3247Z" fill="#3E92C6"/>
</svg>
